<mxfile host="app.diagrams.net" modified="2021-06-03T06:29:07.517Z" agent="5.0 (Macintosh; Intel Mac OS X 10_15_7) AppleWebKit/537.36 (KHTML, like Gecko) Chrome/90.0.4430.85 Safari/537.36" etag="h69mm1MohTwuIsmUuPxV" version="14.6.12" type="github">
  <diagram id="5fvuw2dGT4YF_XITEjJB" name="Page-1">
    <mxGraphModel dx="1730" dy="589" grid="1" gridSize="10" guides="1" tooltips="1" connect="1" arrows="1" fold="1" page="1" pageScale="1" pageWidth="827" pageHeight="1169" math="0" shadow="0">
      <root>
        <mxCell id="0" />
        <mxCell id="1" parent="0" />
        <mxCell id="fyWGlcX98oZRPh7EGz9q-1" value="server" style="shape=umlLifeline;perimeter=lifelinePerimeter;whiteSpace=wrap;html=1;container=1;collapsible=0;recursiveResize=0;outlineConnect=0;rounded=1;shadow=0;comic=0;labelBackgroundColor=none;strokeWidth=1;fontFamily=Verdana;fontSize=18;align=center;" parent="1" vertex="1">
          <mxGeometry x="270" y="80" width="100" height="650" as="geometry" />
        </mxCell>
        <mxCell id="fyWGlcX98oZRPh7EGz9q-2" value="" style="html=1;points=[];perimeter=orthogonalPerimeter;rounded=0;shadow=0;comic=0;labelBackgroundColor=none;strokeWidth=1;fontFamily=Verdana;fontSize=18;align=center;" parent="fyWGlcX98oZRPh7EGz9q-1" vertex="1">
          <mxGeometry x="45" y="100" width="10" height="90" as="geometry" />
        </mxCell>
        <mxCell id="fyWGlcX98oZRPh7EGz9q-5" value="" style="html=1;points=[];perimeter=orthogonalPerimeter;rounded=0;shadow=0;comic=0;labelBackgroundColor=none;strokeWidth=1;fontFamily=Verdana;fontSize=18;align=center;" parent="fyWGlcX98oZRPh7EGz9q-1" vertex="1">
          <mxGeometry x="45" y="210" width="10" height="90" as="geometry" />
        </mxCell>
        <mxCell id="fyWGlcX98oZRPh7EGz9q-24" value="" style="html=1;points=[];perimeter=orthogonalPerimeter;rounded=0;shadow=0;comic=0;labelBackgroundColor=none;strokeWidth=1;fontFamily=Verdana;fontSize=18;align=center;" parent="fyWGlcX98oZRPh7EGz9q-1" vertex="1">
          <mxGeometry x="45" y="340" width="10" height="60" as="geometry" />
        </mxCell>
        <mxCell id="fyWGlcX98oZRPh7EGz9q-29" value="" style="html=1;points=[];perimeter=orthogonalPerimeter;rounded=0;shadow=0;comic=0;labelBackgroundColor=none;strokeWidth=1;fontFamily=Verdana;fontSize=18;align=center;" parent="fyWGlcX98oZRPh7EGz9q-1" vertex="1">
          <mxGeometry x="45" y="444.5" width="10" height="60" as="geometry" />
        </mxCell>
        <mxCell id="fyWGlcX98oZRPh7EGz9q-3" value="用户B&lt;br style=&quot;font-size: 18px;&quot;&gt;client" style="shape=umlLifeline;perimeter=lifelinePerimeter;whiteSpace=wrap;html=1;container=1;collapsible=0;recursiveResize=0;outlineConnect=0;rounded=1;shadow=0;comic=0;labelBackgroundColor=none;strokeWidth=1;fontFamily=Verdana;fontSize=18;align=center;" parent="1" vertex="1">
          <mxGeometry x="20" y="80" width="100" height="670" as="geometry" />
        </mxCell>
        <mxCell id="fyWGlcX98oZRPh7EGz9q-4" value="" style="html=1;points=[];perimeter=orthogonalPerimeter;rounded=0;shadow=0;comic=0;labelBackgroundColor=none;strokeWidth=1;fontFamily=Verdana;fontSize=18;align=center;" parent="fyWGlcX98oZRPh7EGz9q-3" vertex="1">
          <mxGeometry x="45" y="340" width="10" height="60" as="geometry" />
        </mxCell>
        <mxCell id="fyWGlcX98oZRPh7EGz9q-7" value="用户A&lt;br style=&quot;font-size: 18px;&quot;&gt;client" style="shape=umlLifeline;perimeter=lifelinePerimeter;whiteSpace=wrap;html=1;container=1;collapsible=0;recursiveResize=0;outlineConnect=0;rounded=1;shadow=0;comic=0;labelBackgroundColor=none;strokeWidth=1;fontFamily=Verdana;fontSize=18;align=center;" parent="1" vertex="1">
          <mxGeometry x="-200" y="80" width="100" height="670" as="geometry" />
        </mxCell>
        <mxCell id="fyWGlcX98oZRPh7EGz9q-8" value="" style="html=1;points=[];perimeter=orthogonalPerimeter;rounded=0;shadow=0;comic=0;labelBackgroundColor=none;strokeWidth=1;fontFamily=Verdana;fontSize=18;align=center;" parent="fyWGlcX98oZRPh7EGz9q-7" vertex="1">
          <mxGeometry x="45" y="130" width="10" height="80" as="geometry" />
        </mxCell>
        <mxCell id="fyWGlcX98oZRPh7EGz9q-16" value="" style="endArrow=classic;html=1;fontSize=18;" parent="1" edge="1">
          <mxGeometry width="50" height="50" relative="1" as="geometry">
            <mxPoint x="-140" y="260" as="sourcePoint" />
            <mxPoint x="-140" y="280" as="targetPoint" />
            <Array as="points">
              <mxPoint x="-100" y="260" />
              <mxPoint x="-100" y="280" />
            </Array>
          </mxGeometry>
        </mxCell>
        <mxCell id="fyWGlcX98oZRPh7EGz9q-22" value="离线消息表新增数据：&lt;br style=&quot;font-size: 18px;&quot;&gt;用户B未读系统消息" style="text;html=1;align=center;verticalAlign=middle;resizable=0;points=[];autosize=1;fontSize=18;" parent="1" vertex="1">
          <mxGeometry x="370" y="305" width="200" height="50" as="geometry" />
        </mxCell>
        <mxCell id="fyWGlcX98oZRPh7EGz9q-23" value="" style="endArrow=classic;html=1;fontSize=18;" parent="1" edge="1">
          <mxGeometry width="50" height="50" relative="1" as="geometry">
            <mxPoint x="80" y="422" as="sourcePoint" />
            <mxPoint x="310" y="422" as="targetPoint" />
          </mxGeometry>
        </mxCell>
        <mxCell id="fyWGlcX98oZRPh7EGz9q-25" value="登录" style="text;html=1;align=center;verticalAlign=middle;resizable=0;points=[];autosize=1;fontSize=18;" parent="1" vertex="1">
          <mxGeometry x="180" y="395" width="50" height="30" as="geometry" />
        </mxCell>
        <mxCell id="fyWGlcX98oZRPh7EGz9q-26" value="" style="endArrow=classic;html=1;exitX=1;exitY=1;exitDx=0;exitDy=0;exitPerimeter=0;entryX=0.2;entryY=1;entryDx=0;entryDy=0;entryPerimeter=0;fontSize=18;" parent="1" source="fyWGlcX98oZRPh7EGz9q-24" target="fyWGlcX98oZRPh7EGz9q-4" edge="1">
          <mxGeometry width="50" height="50" relative="1" as="geometry">
            <mxPoint x="645" y="480" as="sourcePoint" />
            <mxPoint x="630" y="480" as="targetPoint" />
          </mxGeometry>
        </mxCell>
        <mxCell id="fyWGlcX98oZRPh7EGz9q-27" value="返回未读系统消息提供" style="text;html=1;align=center;verticalAlign=middle;resizable=0;points=[];autosize=1;fontSize=18;" parent="1" vertex="1">
          <mxGeometry x="105" y="455" width="200" height="30" as="geometry" />
        </mxCell>
        <mxCell id="fyWGlcX98oZRPh7EGz9q-28" value="" style="html=1;points=[];perimeter=orthogonalPerimeter;rounded=0;shadow=0;comic=0;labelBackgroundColor=none;strokeWidth=1;fontFamily=Verdana;fontSize=18;align=center;" parent="1" vertex="1">
          <mxGeometry x="65" y="530" width="10" height="140" as="geometry" />
        </mxCell>
        <mxCell id="fyWGlcX98oZRPh7EGz9q-34" style="edgeStyle=orthogonalEdgeStyle;rounded=0;orthogonalLoop=1;jettySize=auto;html=1;fontSize=18;" parent="1" target="fyWGlcX98oZRPh7EGz9q-28" edge="1">
          <mxGeometry relative="1" as="geometry">
            <mxPoint x="670" y="595" as="targetPoint" />
            <Array as="points">
              <mxPoint x="310" y="580" />
              <mxPoint x="310" y="580" />
            </Array>
            <mxPoint x="310" y="580" as="sourcePoint" />
          </mxGeometry>
        </mxCell>
        <mxCell id="fyWGlcX98oZRPh7EGz9q-30" value="" style="endArrow=classic;html=1;fontSize=18;" parent="1" edge="1">
          <mxGeometry width="50" height="50" relative="1" as="geometry">
            <mxPoint x="80" y="530" as="sourcePoint" />
            <mxPoint x="310" y="530" as="targetPoint" />
          </mxGeometry>
        </mxCell>
        <mxCell id="fyWGlcX98oZRPh7EGz9q-31" value="" style="endArrow=classic;html=1;entryX=1.3;entryY=0.889;entryDx=0;entryDy=0;entryPerimeter=0;fontSize=18;" parent="1" target="fyWGlcX98oZRPh7EGz9q-28" edge="1">
          <mxGeometry width="50" height="50" relative="1" as="geometry">
            <mxPoint x="78" y="610" as="sourcePoint" />
            <mxPoint x="381" y="564.5" as="targetPoint" />
            <Array as="points">
              <mxPoint x="110" y="610" />
              <mxPoint x="140" y="610" />
              <mxPoint x="140" y="653" />
            </Array>
          </mxGeometry>
        </mxCell>
        <mxCell id="fyWGlcX98oZRPh7EGz9q-32" value="请求未读系统消息内容" style="text;html=1;align=center;verticalAlign=middle;resizable=0;points=[];autosize=1;fontSize=18;" parent="1" vertex="1">
          <mxGeometry x="105" y="505" width="200" height="30" as="geometry" />
        </mxCell>
        <mxCell id="fyWGlcX98oZRPh7EGz9q-33" value="查看系统消息提醒" style="text;html=1;align=center;verticalAlign=middle;resizable=0;points=[];autosize=1;fontSize=18;" parent="1" vertex="1">
          <mxGeometry x="130" y="615" width="160" height="30" as="geometry" />
        </mxCell>
        <mxCell id="fyWGlcX98oZRPh7EGz9q-35" value="返回消息数据" style="text;html=1;align=center;verticalAlign=middle;resizable=0;points=[];autosize=1;fontSize=18;" parent="1" vertex="1">
          <mxGeometry x="145" y="555" width="120" height="30" as="geometry" />
        </mxCell>
        <mxCell id="aWmyCpfGWKbJSil0DEOl-1" value="系统管理员" style="shape=umlLifeline;perimeter=lifelinePerimeter;whiteSpace=wrap;html=1;container=1;collapsible=0;recursiveResize=0;outlineConnect=0;rounded=1;shadow=0;comic=0;labelBackgroundColor=none;strokeWidth=1;fontFamily=Verdana;fontSize=18;align=center;" parent="1" vertex="1">
          <mxGeometry x="510" y="80" width="100" height="670" as="geometry" />
        </mxCell>
        <mxCell id="aWmyCpfGWKbJSil0DEOl-2" value="" style="html=1;points=[];perimeter=orthogonalPerimeter;rounded=0;shadow=0;comic=0;labelBackgroundColor=none;strokeWidth=1;fontFamily=Verdana;fontSize=18;align=center;" parent="aWmyCpfGWKbJSil0DEOl-1" vertex="1">
          <mxGeometry x="45" y="100" width="10" height="60" as="geometry" />
        </mxCell>
        <mxCell id="aWmyCpfGWKbJSil0DEOl-3" value="" style="endArrow=classic;html=1;exitX=0;exitY=0.317;exitDx=0;exitDy=0;exitPerimeter=0;fontSize=18;" parent="1" source="aWmyCpfGWKbJSil0DEOl-2" edge="1">
          <mxGeometry width="50" height="50" relative="1" as="geometry">
            <mxPoint x="370" y="270" as="sourcePoint" />
            <mxPoint x="330" y="199" as="targetPoint" />
          </mxGeometry>
        </mxCell>
        <mxCell id="aWmyCpfGWKbJSil0DEOl-4" value="编辑推送消息内容，&lt;br style=&quot;font-size: 18px;&quot;&gt;指定用户A、B并提交" style="edgeLabel;html=1;align=center;verticalAlign=middle;resizable=0;points=[];fontSize=18;" parent="aWmyCpfGWKbJSil0DEOl-3" vertex="1" connectable="0">
          <mxGeometry x="0.1245" relative="1" as="geometry">
            <mxPoint x="24" as="offset" />
          </mxGeometry>
        </mxCell>
        <mxCell id="aWmyCpfGWKbJSil0DEOl-7" value="" style="endArrow=classic;html=1;fontSize=18;" parent="1" edge="1">
          <mxGeometry width="50" height="50" relative="1" as="geometry">
            <mxPoint x="310" y="240" as="sourcePoint" />
            <mxPoint x="-140" y="240" as="targetPoint" />
          </mxGeometry>
        </mxCell>
        <mxCell id="aWmyCpfGWKbJSil0DEOl-8" value="推送系统通知" style="edgeLabel;html=1;align=center;verticalAlign=middle;resizable=0;points=[];fontSize=18;" parent="aWmyCpfGWKbJSil0DEOl-7" vertex="1" connectable="0">
          <mxGeometry x="0.1245" relative="1" as="geometry">
            <mxPoint as="offset" />
          </mxGeometry>
        </mxCell>
        <mxCell id="aWmyCpfGWKbJSil0DEOl-11" value="查看系统消息提醒" style="text;html=1;strokeColor=none;fillColor=none;align=center;verticalAlign=middle;whiteSpace=wrap;rounded=0;fontSize=18;" parent="1" vertex="1">
          <mxGeometry x="-100" y="260" width="80" height="20" as="geometry" />
        </mxCell>
        <mxCell id="aWmyCpfGWKbJSil0DEOl-12" value="" style="endArrow=classic;html=1;fontSize=18;" parent="1" edge="1">
          <mxGeometry width="50" height="50" relative="1" as="geometry">
            <mxPoint x="330" y="310" as="sourcePoint" />
            <mxPoint x="330" y="340" as="targetPoint" />
            <Array as="points">
              <mxPoint x="370" y="310" />
              <mxPoint x="370" y="340" />
            </Array>
          </mxGeometry>
        </mxCell>
      </root>
    </mxGraphModel>
  </diagram>
</mxfile>
